<?xml version="1.0" encoding="UTF-8"?>
<svg xmlns="http://www.w3.org/2000/svg" viewBox="0 0 500 200" width="500" height="200">
  <!-- HR Logo -->
  <g>
    <!-- H letter -->
    <rect x="80" y="25" width="25" height="90" fill="#e74c3c" />
    <rect x="150" y="25" width="25" height="90" fill="#e74c3c" />
    <rect x="105" y="55" width="45" height="25" fill="#e74c3c" />
    
    <!-- R letter with person silhouette -->
    <path d="M210,25 h50 a40,40 0 0,1 0,80 h-50 z" fill="#f39c12" />
    <rect x="210" y="25" width="25" height="90" fill="#f39c12" />
    <path d="M235,65 h25 a15,15 0 0,1 15,15 v35 h-25 l-15,-35 z" fill="#f39c12" />
    
    <!-- Person icon in R -->
    <circle cx="245" cy="45" r="10" fill="white" />
    <path d="M235,60 a10,10 0 0,1 20,0 v10 h-20 z" fill="white" />
  </g>
  
  <!-- Text "TALENT SOLUTIONS" -->
  <text x="250" y="130" font-family="Arial, sans-serif" font-size="24" font-weight="bold" text-anchor="middle" fill="#3498db">TALENT SOLUTIONS</text>
  
  <!-- Text "HR TALENT SOLUTIONS PVT. LTD." -->
  <text x="250" y="170" font-family="Arial, sans-serif" font-size="36" font-weight="bold" text-anchor="middle" fill="#3498db">HR TALENT SOLUTIONS PVT. LTD.</text>
  
  <!-- Subtext -->
  <text x="250" y="195" font-family="Arial, sans-serif" font-size="12" text-anchor="middle" fill="#7f8c8d">Tomorrow's Vision for HR Recruitment Talent Solutions Pvt. Ltd.</text>
</svg>
